<?xml version="1.0" encoding="utf-8"?>
<svg version="1.1" xmlns="http://www.w3.org/2000/svg" xmlns:xlink="http://www.w3.org/1999/xlink" x="0px" y="0px"
	 viewBox="0 0 512 512" xml:space="preserve">
<style type="text/css">
	.st0{fill:#5F4B8B;}
</style>
<g id="layer1" transform="translate(0 -332.36)">
	<path id="path270" class="st0" d="M114.3,603.3c1.1-118.2,45.8-230.1,144.9-238.6c72.5-6.4,138.5,89.5,138.5,207.7
		c-1.1,119.3-44.7,230.1-143.8,239.7C180.3,818.5,114.3,721.6,114.3,603.3L114.3,603.3z M373.2,574.6c0-51.1-49-84.2-88.4-78.8
		c-77.8,11.7-140.6,38.3-140.6,108.6c0,51.1,50.1,81,89.5,74.6C311.4,667.2,373.2,644.8,373.2,574.6L373.2,574.6z"/>
</g>
</svg>
